<svg width="64" height="45" viewBox="0 0 64 45" fill="none" xmlns="http://www.w3.org/2000/svg">
<path fill-rule="evenodd" clip-rule="evenodd" d="M64 22.0182C64 21.4842 63.78 20.9742 63.414 20.5902L43.616 0.592239C42.834 -0.197761 41.568 -0.195761 40.788 0.592239C40.006 1.38024 40.006 2.66024 40.788 3.44824L57.174 19.9982H2C0.896 19.9982 0 20.9022 0 22.0182C0 23.1342 0.896 24.0382 2 24.0382H57.172L40.788 40.5882C40.006 41.3762 40.008 42.6562 40.788 43.4442C41.57 44.2322 42.836 44.2322 43.616 43.4442L63.414 23.4462C63.788 23.0682 63.994 22.5482 64 22.0182Z" fill="#333333"/>
</svg>
