<svg width="64" height="45" viewBox="0 0 64 45" fill="none" xmlns="http://www.w3.org/2000/svg">
<path fill-rule="evenodd" clip-rule="evenodd" d="M0 22.0182C0 21.4842 0.219997 20.9742 0.585999 20.5902L20.384 0.592239C21.166 -0.197761 22.432 -0.195761 23.212 0.592239C23.994 1.38024 23.994 2.66024 23.212 3.44824L6.826 19.9982H62C63.104 19.9982 64 20.9022 64 22.0182C64 23.1342 63.104 24.0382 62 24.0382H6.828L23.212 40.5882C23.994 41.3762 23.992 42.6562 23.212 43.4442C22.43 44.2322 21.164 44.2322 20.384 43.4442L0.585999 23.4462C0.211998 23.0682 0.00600052 22.5482 0 22.0182Z" fill="#333333"/>
</svg>
