<svg width="48" height="48" viewBox="0 0 48 48" fill="none" xmlns="http://www.w3.org/2000/svg">
<circle cx="24" cy="24" r="24" fill="#333333"/>
<path fill-rule="evenodd" clip-rule="evenodd" d="M19.671 31.3724V21.6131H16.6546V31.3724H19.671ZM19.671 18.1538C19.653 17.2804 19.0709 16.6155 18.1253 16.6155C17.1795 16.6155 16.5615 17.2804 16.5615 18.1538C16.5615 19.0082 17.1616 19.6924 18.0892 19.6924H18.1071C19.0709 19.6924 19.671 19.0082 19.671 18.1538ZM24.592 31.3724V25.812C24.592 25.5144 24.6135 25.2169 24.701 25.0047C24.9403 24.4098 25.4848 23.794 26.399 23.794C27.5967 23.794 28.3479 24.4738 28.3479 25.812V31.3724H31.3846V25.6632C31.3846 22.6049 29.752 21.1818 27.5743 21.1818C25.7888 21.1818 25.0051 22.18 24.5699 22.8595L24.5917 21.5542H21.5602C21.6038 22.4885 21.5602 31.3724 21.5602 31.3724H24.592Z" fill="#FEFEFE"/>
</svg>
