<svg width="48" height="48" viewBox="0 0 48 48" fill="none" xmlns="http://www.w3.org/2000/svg">
<circle cx="24" cy="24" r="24" fill="#333333"/>
<path fill-rule="evenodd" clip-rule="evenodd" d="M29.8944 17.833C29.2496 17.0999 28.3309 16.6329 27.3141 16.616C25.3618 16.5835 23.7789 18.2331 23.7789 20.3004C23.7789 20.5938 23.8102 20.8799 23.8705 21.1546C20.9325 20.964 18.3276 19.4341 16.5841 17.1279C16.2798 17.6806 16.1055 18.3264 16.1055 19.0183C16.1055 20.3281 16.7296 21.4905 17.6781 22.1768C17.0986 22.1513 16.5535 21.9758 16.0769 21.6881C16.0766 21.7038 16.0766 21.7195 16.0766 21.7355C16.0766 23.5647 17.2952 25.0991 18.9123 25.4566C18.6157 25.5406 18.3034 25.5846 17.981 25.5825C17.7532 25.581 17.5317 25.5557 17.3159 25.5104C17.7657 27.0104 19.0712 28.105 20.6182 28.1412C19.4083 29.1455 17.8841 29.7437 16.2278 29.7402C15.9425 29.7397 15.6611 29.7212 15.3845 29.6857C16.949 30.7592 18.8072 31.3842 20.8035 31.3847C27.3058 31.3864 30.8616 25.7278 30.8616 20.8197C30.8616 20.6587 30.8581 20.4985 30.8514 20.3391C31.5421 19.8244 32.1414 19.1792 32.6153 18.4423C31.9814 18.7281 31.3 18.9179 30.585 18.9975C31.3148 18.5483 31.8754 17.8295 32.1393 16.9674C31.4562 17.3817 30.6997 17.6788 29.8944 17.833Z" fill="#FEFEFE"/>
</svg>
