<svg width="48" height="48" viewBox="0 0 48 48" fill="none" xmlns="http://www.w3.org/2000/svg">
<circle cx="24" cy="24" r="24" fill="#333333"/>
<path fill-rule="evenodd" clip-rule="evenodd" d="M34.0221 20.1395C34.0221 20.1395 33.8221 18.7301 33.2088 18.1092C32.4314 17.2947 31.5594 17.2909 31.1597 17.2432C28.2977 17.0361 24.0045 17.0361 24.0045 17.0361H23.9954C23.9954 17.0361 19.7024 17.0361 16.8402 17.2432C16.4405 17.2909 15.569 17.2947 14.7911 18.1092C14.1777 18.7301 13.9782 20.1395 13.9782 20.1395C13.9782 20.1395 13.7737 21.7945 13.7737 23.4496V25.0015C13.7737 26.6563 13.9782 28.3114 13.9782 28.3114C13.9782 28.3114 14.1777 29.7208 14.7911 30.3416C15.569 31.1563 16.5909 31.1302 17.0461 31.2156C18.6825 31.3727 23.9999 31.4213 23.9999 31.4213C23.9999 31.4213 28.2977 31.4147 31.1597 31.2079C31.5594 31.1602 32.4314 31.1563 33.2088 30.3416C33.8221 29.7208 34.0221 28.3114 34.0221 28.3114C34.0221 28.3114 34.2262 26.6563 34.2262 25.0015V23.4496C34.2262 21.7945 34.0221 20.1395 34.0221 20.1395ZM21.8886 26.8815L21.8876 21.135L27.4139 24.0182L21.8886 26.8815Z" fill="#FEFEFE"/>
</svg>
